<?xml version="1.0" encoding="UTF-8"?>
<!DOCTYPE svg PUBLIC "-//W3C//DTD SVG 1.1//EN" "http://www.w3.org/Graphics/SVG/1.1/DTD/svg11.dtd">
<svg xmlns="http://www.w3.org/2000/svg" version="1.1" width="733px" height="734px" style="shape-rendering:geometricPrecision; text-rendering:geometricPrecision; image-rendering:optimizeQuality; fill-rule:evenodd; clip-rule:evenodd" xmlns:xlink="http://www.w3.org/1999/xlink">
<g><path style="opacity:0.971" fill="#c9cac9" d="M 271.5,-0.5 C 285.167,-0.5 298.833,-0.5 312.5,-0.5C 313.504,0.682751 314.338,2.01608 315,3.5C 330.667,68.1667 346.333,132.833 362,197.5C 364.526,201.386 367.192,201.386 370,197.5C 385.158,135.203 400.158,72.87 415,10.5C 415.634,6.419 417.134,2.75233 419.5,-0.5C 433.167,-0.5 446.833,-0.5 460.5,-0.5C 462.463,2.51798 462.963,5.85132 462,9.5C 444.537,76.8896 426.87,144.223 409,211.5C 401.183,230.589 386.849,239.589 366,238.5C 346.694,239.52 332.694,231.52 324,214.5C 305.26,144.703 286.76,74.8702 268.5,5C 269.223,2.98171 270.223,1.14838 271.5,-0.5 Z"/></g>
<g><path style="opacity:0.966" fill="#c9cac9" d="M 172.5,40.5 C 177.133,39.4582 180.299,41.1249 182,45.5C 217.933,107.035 253.6,168.702 289,230.5C 293.126,242.781 291.792,254.447 285,265.5C 275.491,280.753 261.824,289.42 244,291.5C 236.726,291.297 229.892,289.464 223.5,286C 163.331,250.414 102.998,215.081 42.5,180C 40.718,177.757 40.218,175.257 41,172.5C 49.8333,163.667 58.6667,154.833 67.5,146C 69.8333,145.333 72.1667,145.333 74.5,146C 131.6,180.965 188.766,215.799 246,250.5C 250.379,249.025 251.379,246.359 249,242.5C 214.416,186.333 180.082,130 146,73.5C 145.245,70.6967 145.578,68.0301 147,65.5C 155.395,56.937 163.895,48.6037 172.5,40.5 Z"/></g>
<g><path style="opacity:0.967" fill="#c9cac9" d="M 553.5,40.5 C 555.527,40.3379 557.527,40.5045 559.5,41C 568.333,49.8333 577.167,58.6667 586,67.5C 586.667,69.5 586.667,71.5 586,73.5C 551.151,131.01 516.317,188.51 481.5,246C 482.506,249.031 484.506,250.365 487.5,250C 544.167,215.333 600.833,180.667 657.5,146C 659.833,145.333 662.167,145.333 664.5,146C 673,154.5 681.5,163 690,171.5C 691.301,173.365 691.635,175.365 691,177.5C 689.378,179.906 687.211,181.739 684.5,183C 625.167,217.667 565.833,252.333 506.5,287C 489.365,294.506 473.698,292.173 459.5,280C 437.622,260.688 434.788,238.854 451,214.5C 484.995,156.353 519.161,98.3526 553.5,40.5 Z"/></g>
<g><path style="opacity:0.97" fill="#fcfdfc" d="M -0.5,460.5 C -0.5,447.167 -0.5,433.833 -0.5,420.5C 0.639972,419.199 1.97331,418.032 3.5,417C 68.9331,401.308 134.266,385.308 199.5,369C 201.018,366.075 200.351,363.742 197.5,362C 132.833,346.333 68.1667,330.667 3.5,315C 1.64977,314.31 0.316435,313.144 -0.5,311.5C -0.5,298.5 -0.5,285.5 -0.5,272.5C 0.658736,270.369 2.49207,269.036 5,268.5C 74.8653,286.758 144.699,305.258 214.5,324C 231.52,332.694 239.52,346.694 238.5,366C 239.52,385.306 231.52,399.306 214.5,408C 144.871,426.657 75.2044,445.157 5.5,463.5C 3.25915,462.871 1.25915,461.871 -0.5,460.5 Z"/></g>
<g><path style="opacity:0.97" fill="#c9cac9" d="M 732.5,272.5 C 732.5,285.5 732.5,298.5 732.5,311.5C 731.36,312.801 730.027,313.968 728.5,315C 662.814,330.63 597.314,346.797 532,363.5C 530.675,368.188 532.509,370.688 537.5,371C 599.87,385.842 662.203,400.842 724.5,416C 727.684,416.754 730.351,418.254 732.5,420.5C 732.5,433.5 732.5,446.5 732.5,459.5C 731.225,461.73 729.225,463.063 726.5,463.5C 656.796,445.157 587.129,426.657 517.5,408C 500.259,399.395 492.259,385.395 493.5,366C 492.259,346.605 500.259,332.605 517.5,324C 587.129,305.343 656.796,286.843 726.5,268.5C 729.225,268.937 731.225,270.27 732.5,272.5 Z"/></g>
<g><path style="opacity:0.97" fill="#fcfdfc" d="M 356.5,325.5 C 373.041,323.289 386.874,328.289 398,340.5C 408.445,356.071 409.112,372.071 400,388.5C 384.884,407.236 366.384,411.402 344.5,401C 323.839,385.098 319.672,365.598 332,342.5C 338.221,333.977 346.388,328.31 356.5,325.5 Z"/></g>
<g><path style="opacity:0.965" fill="#c9cac9" d="M 241.5,440.5 C 260.364,441.849 274.864,450.516 285,466.5C 290.94,476.526 292.606,487.192 290,498.5C 287.803,505.227 284.803,511.561 281,517.5C 247.211,575.581 213.045,633.414 178.5,691C 176.5,691.667 174.5,691.667 172.5,691C 163.697,683.198 155.197,675.031 147,666.5C 145.578,663.97 145.245,661.303 146,658.5C 180.082,602 214.416,545.667 249,489.5C 251.311,485.929 250.477,483.262 246.5,481.5C 189,516.082 131.667,550.915 74.5,586C 71.366,586.79 68.366,586.457 65.5,585C 56.9691,576.803 48.8025,568.303 41,559.5C 40.218,556.743 40.718,554.243 42.5,552C 104.5,516 166.5,480 228.5,444C 232.86,442.417 237.194,441.25 241.5,440.5 Z"/></g>
<g><path style="opacity:0.966" fill="#c9cac9" d="M 483.5,440.5 C 494.325,440.386 504.325,443.219 513.5,449C 568.167,481 622.833,513 677.5,545C 682.3,547.81 686.8,550.977 691,554.5C 691.635,556.635 691.301,558.635 690,560.5C 681.5,569 673,577.5 664.5,586C 662.167,586.667 659.833,586.667 657.5,586C 600.333,550.915 543,516.082 485.5,481.5C 480.698,484.099 480.198,487.432 484,491.5C 518.251,547 552.251,602.667 586,658.5C 586.755,661.303 586.422,663.97 585,666.5C 576.803,675.031 568.303,683.198 559.5,691C 556.044,692.123 553.21,691.29 551,688.5C 517.066,629.574 482.732,570.907 448,512.5C 437.695,495.891 438.028,479.558 449,463.5C 457.679,451.423 469.179,443.757 483.5,440.5 Z"/></g>
<g><path style="opacity:0.968" fill="#c9cac9" d="M 457.5,733.5 C 445.833,733.5 434.167,733.5 422.5,733.5C 418.779,732.264 416.612,729.597 416,725.5C 400.824,661.797 385.491,598.13 370,534.5C 367.333,530.5 364.667,530.5 362,534.5C 346.333,599.167 330.667,663.833 315,728.5C 313.893,731.113 312.06,732.78 309.5,733.5C 297.833,733.5 286.167,733.5 274.5,733.5C 271.351,732.513 269.351,730.347 268.5,727C 286.76,657.13 305.26,587.297 324,517.5C 332.669,500.49 346.669,492.49 366,493.5C 386.875,492.421 401.208,501.421 409,520.5C 426.667,587.833 444.333,655.167 462,722.5C 462.667,725.167 462.667,727.833 462,730.5C 460.591,731.781 459.091,732.781 457.5,733.5 Z"/></g>
</svg>
